<svg xmlns="http://www.w3.org/2000/svg" viewBox="0 0 64 64"><defs><style>.a{stroke:#fff;stroke-miterlimit:10;stroke-width:2px;}</style></defs><title>画板 1</title><path class="a" d="M16.85,9.63c-1.47,1.53-2.19,3.8-2.19,6.95v7.94c0,3.85-1.5,4.06-2.22,4.16l-1.72.25V34l1.71.25c.61.09,2.23.33,2.23,4.61v7.52c0,3.13.72,5.39,2.19,6.93a8.72,8.72,0,0,0,6.21,2.43l2.07.07v-6.1l-1.89-.1a2.13,2.13,0,0,1-1.59-.57c-.13-.18-.55-1-.55-3.41v-7c0-3.53-.92-5.74-2.14-7.12,1.22-1.33,2.14-3.45,2.14-6.83V17.3c0-2.4.42-3.21.55-3.4q.34-.51,1.59-.57l1.89-.1V7.11L23,7.2A8.78,8.78,0,0,0,16.85,9.63Z"/><rect class="a" x="27.62" y="3.84" width="6.39" height="55.82"/><path class="a" d="M49.19,28.68c-.72-.1-2.22-.31-2.22-4.16V16.58c0-3.17-.71-5.44-2.19-7A8.82,8.82,0,0,0,38.59,7.2l-2.08-.09v6.11l1.88.1a2.18,2.18,0,0,1,1.59.59c.05.07.53.75.53,3.39v7.41c0,3.37.93,5.49,2.16,6.83-1.23,1.38-2.16,3.59-2.16,7.12v7C40.51,48.29,40,49,40,49a2.1,2.1,0,0,1-1.59.59l-1.88.11v6.09l2.07-.07a8.71,8.71,0,0,0,6.2-2.42C46.26,51.81,47,49.54,47,46.39V38.87c0-4.28,1.63-4.52,2.24-4.61l1.7-.25V28.93Z"/></svg>